<svg className="animated" id="freepik_stories-interview" xmlns="http://www.w3.org/2000/svg" viewBox="0 0 500 500" version="1.1" xmlns:xlink="http://www.w3.org/1999/xlink" xmlns:svgjs="http://svgjs.com/svgjs"><style>svg#freepik_stories-interview:not(.animated) .animable {opacity: 0;}svg#freepik_stories-interview.animated #freepik--background-complete--inject-31 {animation: 1s 1 forwards cubic-bezier(.36,-0.01,.5,1.38) slideUp;animation-delay: 0s;}svg#freepik_stories-interview.animated #freepik--Shadow--inject-31 {animation: 1s 1 forwards cubic-bezier(.36,-0.01,.5,1.38) lightSpeedRight;animation-delay: 0s;}svg#freepik_stories-interview.animated #freepik--character-2--inject-31 {animation: 1s 1 forwards cubic-bezier(.36,-0.01,.5,1.38) slideUp;animation-delay: 0s;}svg#freepik_stories-interview.animated #freepik--Table--inject-31 {animation: 1s 1 forwards cubic-bezier(.36,-0.01,.5,1.38) slideDown;animation-delay: 0s;}svg#freepik_stories-interview.animated #freepik--character-1--inject-31 {animation: 1s 1 forwards cubic-bezier(.36,-0.01,.5,1.38) slideUp;animation-delay: 0s;}svg#freepik_stories-interview.animated #freepik--bubble-speech--inject-31 {animation: 1s 1 forwards cubic-bezier(.36,-0.01,.5,1.38) slideDown;animation-delay: 0s;}            @keyframes slideUp {                0% {                    opacity: 0;                    transform: translateY(30px);                }                100% {                    opacity: 1;                    transform: inherit;                }            }                    @keyframes lightSpeedRight {              from {                transform: translate3d(50%, 0, 0) skewX(-20deg);                opacity: 0;              }              60% {                transform: skewX(10deg);                opacity: 1;              }              80% {                transform: skewX(-2deg);              }              to {                opacity: 1;                transform: translate3d(0, 0, 0);              }            }                    @keyframes slideDown {                0% {                    opacity: 0;                    transform: translateY(-30px);                }                100% {                    opacity: 1;                    transform: translateY(0);                }            }        </style><g id="freepik--background-complete--inject-31" className="animable" style="transform-origin: 250px 226.87px;"><rect y="382.4" width="500" height="0.25" style="fill: rgb(235, 235, 235); transform-origin: 250px 382.525px;" id="elsa01yhl18dq" className="animable"></rect><rect x="416.78" y="398.49" width="33.12" height="0.25" style="fill: rgb(235, 235, 235); transform-origin: 433.34px 398.615px;" id="eloyi71zcast" className="animable"></rect><rect x="333.38" y="398.49" width="70.81" height="0.25" style="fill: rgb(235, 235, 235); transform-origin: 368.785px 398.615px;" id="eld9wpeh5tut" className="animable"></rect><rect x="275.14" y="389.21" width="19.19" height="0.25" style="fill: rgb(235, 235, 235); transform-origin: 284.735px 389.335px;" id="el3kzgj7ffxq6" className="animable"></rect><rect x="52.46" y="390.89" width="34.29" height="0.25" style="fill: rgb(235, 235, 235); transform-origin: 69.605px 391.015px;" id="el36a03ujxir1" className="animable"></rect><rect x="95.65" y="390.89" width="62.35" height="0.25" style="fill: rgb(235, 235, 235); transform-origin: 126.825px 391.015px;" id="el1wx8y6i82xz" className="animable"></rect><rect x="188.33" y="395.11" width="36.81" height="0.25" style="fill: rgb(235, 235, 235); transform-origin: 206.735px 395.235px;" id="elujjddlnel9p" className="animable"></rect><path d="M237,337.8H43.91a5.71,5.71,0,0,1-5.7-5.71V60.66A5.71,5.71,0,0,1,43.91,55H237a5.71,5.71,0,0,1,5.71,5.71V332.09A5.71,5.71,0,0,1,237,337.8ZM43.91,55.2a5.46,5.46,0,0,0-5.45,5.46V332.09a5.46,5.46,0,0,0,5.45,5.46H237a5.47,5.47,0,0,0,5.46-5.46V60.66A5.47,5.47,0,0,0,237,55.2Z" style="fill: rgb(235, 235, 235); transform-origin: 140.46px 196.4px;" id="elfqp8b4lsiua" className="animable"></path><path d="M453.31,337.8H260.21a5.72,5.72,0,0,1-5.71-5.71V60.66A5.72,5.72,0,0,1,260.21,55h193.1A5.71,5.71,0,0,1,459,60.66V332.09A5.71,5.71,0,0,1,453.31,337.8ZM260.21,55.2a5.47,5.47,0,0,0-5.46,5.46V332.09a5.47,5.47,0,0,0,5.46,5.46h193.1a5.47,5.47,0,0,0,5.46-5.46V60.66a5.47,5.47,0,0,0-5.46-5.46Z" style="fill: rgb(235, 235, 235); transform-origin: 356.75px 196.4px;" id="elnmdmfopujho" className="animable"></path><rect x="62.05" y="89.87" width="96.69" height="266.7" style="fill: rgb(245, 245, 245); transform-origin: 110.395px 223.22px;" id="elgzxtfdvbods" className="animable"></rect><g id="ellb63g727ap9"><rect x="158.75" y="89.87" width="0.98" height="266.7" style="fill: rgb(235, 235, 235); transform-origin: 159.24px 223.22px; transform: rotate(180deg);" className="animable"></rect></g><rect x="71.38" y="100.05" width="78.03" height="246.35" style="fill: rgb(255, 255, 255); transform-origin: 110.395px 223.225px;" id="elq7xz97uryj" className="animable"></rect><g id="elfvuvdfj425c"><rect x="200.18" y="78.27" width="228.09" height="169.47" style="fill: rgb(230, 230, 230); transform-origin: 314.225px 163.005px; transform: rotate(180deg);" className="animable"></rect></g><g id="eli2z1lr4z2be"><rect x="196.65" y="78.27" width="228.09" height="169.47" style="fill: rgb(245, 245, 245); transform-origin: 310.695px 163.005px; transform: rotate(180deg);" className="animable"></rect></g><g id="el3jmd4oc0zsr"><rect x="233.08" y="55.29" width="155.24" height="215.42" style="fill: rgb(255, 255, 255); transform-origin: 310.7px 163px; transform: rotate(90deg);" className="animable"></rect></g><g id="elyo5f56mgm5a"><rect x="126.7" y="161.67" width="155.24" height="2.67" style="fill: rgb(230, 230, 230); transform-origin: 204.32px 163.005px; transform: rotate(90deg);" className="animable"></rect></g><g id="elu2ill9x0opk"><rect x="199.27" y="197.9" width="222.85" height="9.56" style="fill: rgb(245, 245, 245); transform-origin: 310.695px 202.68px; transform: rotate(180deg);" className="animable"></rect></g><g id="elnc3upoplv8i"><g style="opacity: 0.4; transform-origin: 313.08px 98.015px;" className="animable"><rect x="189.58" y="70.78" width="21.53" height="54.47" style="fill: rgb(230, 230, 230); transform-origin: 200.345px 98.015px;" id="elr8mmcmy9sac" className="animable"></rect><g id="elvp66dxib9z"><rect x="211.11" y="70.78" width="10.68" height="50.09" style="fill: rgb(245, 245, 245); transform-origin: 216.45px 95.825px; transform: rotate(180deg);" className="animable"></rect></g><rect x="221.79" y="70.78" width="21.53" height="54.47" style="fill: rgb(230, 230, 230); transform-origin: 232.555px 98.015px;" id="el6h9ekqoz94w" className="animable"></rect><g id="elnr9f1h7tlbh"><rect x="243.32" y="70.78" width="10.68" height="50.09" style="fill: rgb(245, 245, 245); transform-origin: 248.66px 95.825px; transform: rotate(180deg);" className="animable"></rect></g><rect x="254" y="70.78" width="21.53" height="54.47" style="fill: rgb(230, 230, 230); transform-origin: 264.765px 98.015px;" id="elsz8wsus4e9" className="animable"></rect><g id="elplmi4mxjhd"><rect x="275.53" y="70.78" width="10.68" height="50.09" style="fill: rgb(245, 245, 245); transform-origin: 280.87px 95.825px; transform: rotate(180deg);" className="animable"></rect></g><rect x="286.21" y="70.78" width="21.53" height="54.47" style="fill: rgb(230, 230, 230); transform-origin: 296.975px 98.015px;" id="el60aqu14tyta" className="animable"></rect><g id="el1rt66p2qr4q"><rect x="307.74" y="70.78" width="10.68" height="50.09" style="fill: rgb(245, 245, 245); transform-origin: 313.08px 95.825px; transform: rotate(180deg);" className="animable"></rect></g><rect x="318.42" y="70.78" width="21.53" height="54.47" style="fill: rgb(230, 230, 230); transform-origin: 329.185px 98.015px;" id="elev0oiis5ij8" className="animable"></rect><g id="elo2vq3t98w5r"><rect x="339.95" y="70.78" width="10.68" height="50.09" style="fill: rgb(245, 245, 245); transform-origin: 345.29px 95.825px; transform: rotate(180deg);" className="animable"></rect></g><rect x="350.63" y="70.78" width="21.53" height="54.47" style="fill: rgb(230, 230, 230); transform-origin: 361.395px 98.015px;" id="elern61w3c5dk" className="animable"></rect><g id="elu5tolgwzv4k"><rect x="372.16" y="70.78" width="10.68" height="50.09" style="fill: rgb(245, 245, 245); transform-origin: 377.5px 95.825px; transform: rotate(180deg);" className="animable"></rect></g><rect x="382.84" y="70.78" width="21.53" height="54.47" style="fill: rgb(230, 230, 230); transform-origin: 393.605px 98.015px;" id="elxwr0gstqss" className="animable"></rect><g id="ele3vq8j4fl8"><rect x="404.37" y="70.78" width="10.68" height="50.09" style="fill: rgb(245, 245, 245); transform-origin: 409.71px 95.825px; transform: rotate(180deg);" className="animable"></rect></g><rect x="415.05" y="70.78" width="21.53" height="54.47" style="fill: rgb(230, 230, 230); transform-origin: 425.815px 98.015px;" id="elqplbtgyby9b" className="animable"></rect></g></g><g id="el8bxpswhskzs"><rect x="203.72" y="283" width="26.69" height="99.4" style="fill: rgb(230, 230, 230); transform-origin: 217.065px 332.7px; transform: rotate(180deg);" className="animable"></rect></g><polygon points="208.16 382.4 203.72 382.4 203.72 373.45 212.82 373.45 208.16 382.4" style="fill: rgb(240, 240, 240); transform-origin: 208.27px 377.925px;" id="elbuadokmyex" className="animable"></polygon><g id="elu7drehtjuie"><rect x="395.75" y="283" width="26.69" height="99.4" style="fill: rgb(230, 230, 230); transform-origin: 409.095px 332.7px; transform: rotate(180deg);" className="animable"></rect></g><g id="el19fxqdlgv6s"><rect x="203.72" y="283" width="195.91" height="95.96" style="fill: rgb(240, 240, 240); transform-origin: 301.675px 330.98px; transform: rotate(180deg);" className="animable"></rect></g><g id="elxy7zld55ek"><rect x="207.16" y="287.25" width="189.02" height="26.32" style="fill: rgb(230, 230, 230); transform-origin: 301.67px 300.41px; transform: rotate(180deg);" className="animable"></rect></g><path d="M255,295.43h93.39c4.33,0,8.48-3.25,11.46-9H243.52C246.5,292.18,250.64,295.43,255,295.43Z" style="fill: rgb(240, 240, 240); transform-origin: 301.685px 290.93px;" id="el99koqmjvt57" className="animable"></path><polygon points="395.19 382.4 399.63 382.4 399.63 373.45 390.53 373.45 395.19 382.4" style="fill: rgb(240, 240, 240); transform-origin: 395.08px 377.925px;" id="el43w1wt0xerc" className="animable"></polygon><g id="elonswbegdns"><rect x="207.16" y="317.82" width="189.02" height="26.32" style="fill: rgb(230, 230, 230); transform-origin: 301.67px 330.98px; transform: rotate(180deg);" className="animable"></rect></g><path d="M255,326h93.39c4.33,0,8.48-3.24,11.46-9H243.52C246.5,322.76,250.64,326,255,326Z" style="fill: rgb(240, 240, 240); transform-origin: 301.685px 321.5px;" id="elrf0vg6eem6r" className="animable"></path><g id="elar78t52qzq"><rect x="207.16" y="348.39" width="189.02" height="26.32" style="fill: rgb(230, 230, 230); transform-origin: 301.67px 361.55px; transform: rotate(180deg);" className="animable"></rect></g><path d="M255,356.57h93.39c4.33,0,8.48-3.24,11.46-9H243.52C246.5,353.33,250.64,356.57,255,356.57Z" style="fill: rgb(240, 240, 240); transform-origin: 301.685px 352.07px;" id="elour54w2uwd" className="animable"></path></g><g id="freepik--Shadow--inject-31" className="animable" style="transform-origin: 250px 416.24px;"><ellipse id="freepik--path--inject-31" cx="250" cy="416.24" rx="193.89" ry="11.32" style="fill: rgb(245, 245, 245); transform-origin: 250px 416.24px;" className="animable"></ellipse></g><g id="freepik--character-2--inject-31" className="animable animator-active" style="transform-origin: 327.396px 298.422px;"><path d="M369.88,410.53h-1.07a.92.92,0,0,1-.85-.87l-6.58-45.82h5l4.36,45.52A1,1,0,0,1,369.88,410.53Z" style="fill: rgb(64, 123, 255); transform-origin: 366.068px 387.185px;" id="el1y7nkzvpdm2" className="animable"></path><g id="elw7f9ndv4eej"><path d="M369.88,410.53h-1.07a.92.92,0,0,1-.85-.87l-6.58-45.82h5l4.36,45.52A1,1,0,0,1,369.88,410.53Z" style="opacity: 0.3; transform-origin: 366.068px 387.185px;" className="animable"></path></g><path d="M383.6,410.53h-1.07a.92.92,0,0,1-.85-.87l-6.58-45.82h5l4.37,45.52A1,1,0,0,1,383.6,410.53Z" style="fill: rgb(64, 123, 255); transform-origin: 379.793px 387.185px;" id="eluuifb1qv4j" className="animable"></path><g id="ellmt0j7oggd8"><path d="M383.6,410.53h-1.07a.92.92,0,0,1-.85-.87l-6.58-45.82h5l4.37,45.52A1,1,0,0,1,383.6,410.53Z" style="opacity: 0.3; transform-origin: 379.793px 387.185px;" className="animable"></path></g><path d="M307.16,410.53h1.07a.92.92,0,0,0,.85-.87l6.58-45.82h-5l-4.36,45.52A1,1,0,0,0,307.16,410.53Z" style="fill: rgb(64, 123, 255); transform-origin: 310.972px 387.185px;" id="elkeqb54dnwfl" className="animable"></path><g id="elm574ej0ugm"><path d="M307.16,410.53h1.07a.92.92,0,0,0,.85-.87l6.58-45.82h-5l-4.36,45.52A1,1,0,0,0,307.16,410.53Z" style="opacity: 0.3; transform-origin: 310.972px 387.185px;" className="animable"></path></g><path d="M293.44,410.53h1.07a.92.92,0,0,0,.85-.87l6.58-45.82h-5l-4.36,45.52A1,1,0,0,0,293.44,410.53Z" style="fill: rgb(64, 123, 255); transform-origin: 297.252px 387.185px;" id="elg44ypb5jaz" className="animable"></path><g id="elvsoy8oqsen"><path d="M293.44,410.53h1.07a.92.92,0,0,0,.85-.87l6.58-45.82h-5l-4.36,45.52A1,1,0,0,0,293.44,410.53Z" style="opacity: 0.3; transform-origin: 297.252px 387.185px;" className="animable"></path></g><path d="M275.66,309.51h33.68c6-20.75,27.48-37.12,49.5-37.12h10.94c23,0,37.92,17.93,33.22,40.06a44.64,44.64,0,0,1-4.29,11.67l-5.31,32.19c-.68,4.16-4,7.53-7.4,7.53H284.62c-3.4,0-6.72-3.37-7.4-7.53L270.74,317C270.05,312.88,272.26,309.51,275.66,309.51Z" style="fill: rgb(64, 123, 255); transform-origin: 337.24px 318.115px;" id="els2aouipkhvl" className="animable"></path><g id="elrckgcotbrf"><path d="M275.66,309.51h33.68c6-20.75,27.48-37.12,49.5-37.12h10.94c23,0,37.92,17.93,33.22,40.06a44.64,44.64,0,0,1-4.29,11.67l-5.31,32.19c-.68,4.16-4,7.53-7.4,7.53H284.62c-3.4,0-6.72-3.37-7.4-7.53L270.74,317C270.05,312.88,272.26,309.51,275.66,309.51Z" style="fill: rgb(255, 255, 255); opacity: 0.5; transform-origin: 337.24px 318.115px;" className="animable"></path></g><path d="M267.23,398.68l8.34,3.82a.59.59,0,0,1,.32.76l-2.63,6.79a1.44,1.44,0,0,1-1.9.72c-2.88-1.38-4.19-2.19-7.86-3.87a98.15,98.15,0,0,1-11.22-6.5c-2.72-2-.72-4.7.63-4.1,6.1,2.69,10,2.93,12.83,2.25A2.23,2.23,0,0,1,267.23,398.68Z" style="fill: rgb(38, 50, 56); transform-origin: 263.429px 403.555px;" id="el6lsf0m6rs99" className="animable"></path><path d="M326.38,296.43s-53.33.66-54.16,21.68c-1.18,30.22-5.64,80.39-5.64,80.39l9,4s15.76-50.34,16.32-73.94c15-3.72,53.57,0,58.1-12.26a40.43,40.43,0,0,0,1.71-19.87Z" style="fill: rgb(64, 123, 255); transform-origin: 309.414px 349.465px;" id="elefs9oxwgge" className="animable"></path><g id="elf8xwtysza2u"><path d="M326.38,296.43s-53.33.66-54.16,21.68c-1.18,30.22-5.64,80.39-5.64,80.39l9,4s15.76-50.34,16.32-73.94c15-3.72,53.57,0,58.1-12.26a40.43,40.43,0,0,0,1.71-19.87Z" style="opacity: 0.2; transform-origin: 309.414px 349.465px;" className="animable"></path></g><path d="M337.73,241.12c-.47,1.94-.94,3.69-1.47,5.51s-1.08,3.59-1.66,5.37c-1.17,3.56-2.46,7.1-3.94,10.6A86.64,86.64,0,0,1,325.51,273a50.64,50.64,0,0,1-3.38,5.11,29,29,0,0,1-4.65,4.9l-.15.13-.32.24a7.65,7.65,0,0,1-3.36,1.2,9.35,9.35,0,0,1-2.27,0,13.82,13.82,0,0,1-3.07-.74,32.8,32.8,0,0,1-4.47-2,75.41,75.41,0,0,1-7.43-4.72c-2.32-1.67-4.56-3.4-6.74-5.2s-4.27-3.64-6.34-5.62a3.06,3.06,0,0,1,3.6-4.88l.05,0c2.36,1.31,4.74,2.7,7.13,4s4.75,2.61,7.12,3.83,4.75,2.38,7,3.32a20.47,20.47,0,0,0,3.19,1.06,3.15,3.15,0,0,0,1,.13c.07,0,0,0-.21,0a3.15,3.15,0,0,0-1.42.53l-.48.36a17.6,17.6,0,0,0,2.59-3.19,43.19,43.19,0,0,0,2.41-4.09,95.64,95.64,0,0,0,4.11-9.28c1.23-3.22,2.38-6.52,3.45-9.86s2.07-6.77,3-10l0-.12a6.12,6.12,0,0,1,11.85,3.06Z" style="fill: rgb(38, 50, 56); transform-origin: 310.147px 259.127px;" id="elojq0agk3kx" className="animable"></path><path d="M316.11,403h10a.63.63,0,0,1,.66.61l.49,7.91a1.59,1.59,0,0,1-1.56,1.59c-3.48-.06-5.15-.27-9.55-.27-2.7,0-8.16.28-11.9.28s-3.63-3.69-2.05-4c7.11-1.5,9.86-3.57,12.37-5.55A2.58,2.58,0,0,1,316.11,403Z" style="fill: rgb(38, 50, 56); transform-origin: 314.211px 408.06px;" id="elfggij0o7upv" className="animable"></path><path d="M340.75,296.43s-48.37,4.08-47.18,25.09c1.3,23,22.54,81.5,22.54,81.5h9.78s-8.37-53.57-11.32-77c13.64,0,45.26,2.56,49.8-9.73a40.35,40.35,0,0,0,1.7-19.87Z" style="fill: rgb(64, 123, 255); transform-origin: 330.081px 349.72px;" id="elyeslfa2o3e" className="animable"></path><path d="M287.68,262.4a16.27,16.27,0,0,0-2.72-3.34c-2,1.86-3.09,7.27-3.09,7.27l2.73.24S287.74,265.55,287.68,262.4Z" style="fill: rgb(64, 123, 255); transform-origin: 284.775px 262.815px;" id="elk7ldynucp98" className="animable"></path><path d="M277.64,257.54l-3.11-1.35a1.82,1.82,0,0,0-2.28.73l-1.48,2.44a1.83,1.83,0,0,0,.25,2.2l4.27,4.45,7.12-.29a2.25,2.25,0,0,0,1.93-1.23l.82-1.61a2.23,2.23,0,0,0-.71-2.89C282.14,258.47,277.64,257.54,277.64,257.54Z" style="fill: rgb(255, 195, 189); transform-origin: 277.967px 261.025px;" id="elo4zfdqqwld7" className="animable"></path><path d="M325.92,239.07c-1.42,9-3.27,28.43.5,57.73l39.65-.37c-.24-20.31,2.94-39.37,6.05-58a5.54,5.54,0,0,0-4.71-6.41,147.33,147.33,0,0,0-34.23,0A8.53,8.53,0,0,0,325.92,239.07Z" style="fill: rgb(38, 50, 56); transform-origin: 348.195px 263.911px;" id="el0m4n66m8xxs" className="animable"></path><path d="M372.48,235.9c1.17,2.89,2.1,5.66,3.06,8.52s1.78,5.73,2.57,8.64,1.48,5.88,2,8.91a73.06,73.06,0,0,1,1.21,9.37c.06.81.07,1.65.08,2.49v1.28a7.85,7.85,0,0,1-1,3.75,6.87,6.87,0,0,1-1.66,1.94,6.54,6.54,0,0,1-1,.66,6.09,6.09,0,0,1-1,.44,8.3,8.3,0,0,1-2.94.52,13.36,13.36,0,0,1-3.5-.55,31.1,31.1,0,0,1-4.84-1.91c-1.45-.72-2.81-1.47-4.14-2.25a109.51,109.51,0,0,1-14.67-10.49,3.05,3.05,0,0,1,3.27-5.1l.07,0c5.17,2.46,10.43,5,15.55,7.11,1.28.52,2.55,1,3.8,1.43a20.58,20.58,0,0,0,3.41.93c.46.08.87.07.82,0a1.51,1.51,0,0,0-.79.14,4.1,4.1,0,0,0-.46.21,3.36,3.36,0,0,0-.54.36,4.29,4.29,0,0,0-1,1.11,3.69,3.69,0,0,0-.52,1.64l-.05-.91c-.06-.62-.11-1.23-.2-1.87a106.62,106.62,0,0,0-3.74-16c-1.6-5.37-3.44-10.85-5.31-16.06l0-.05a6.12,6.12,0,0,1,11.43-4.36Z" style="fill: rgb(38, 50, 56); transform-origin: 363.467px 257.234px;" id="elpdfwmik3oyr" className="animable"></path><path d="M356.63,211.91l-4.79,4-6.54,5.43a18.9,18.9,0,0,1,.42,2.63c.31,3.16-.38,6.06-4.21,7.53a5,5,0,0,0-3.16,3.09c-.52,1.67.09,3.54,5.35,3.54,7.73,0,11.76-3.44,13.28-5.13a1.37,1.37,0,0,0,.07-1.71C354,226.93,355.38,217.33,356.63,211.91Z" style="fill: rgb(255, 195, 189); transform-origin: 347.758px 225.02px;" id="eld4hxg68czzd" className="animable"></path><path d="M343.51,236.41a3,3,0,0,1,.67,1.36,5.49,5.49,0,0,1,1.45-1.36,5.18,5.18,0,0,1,2.77,3.24,14.61,14.61,0,0,1-4.16-1.54,7.11,7.11,0,0,1-2.78.86C341.52,237.24,343.51,236.41,343.51,236.41Z" style="fill: rgb(64, 123, 255); transform-origin: 344.93px 238.03px;" id="elterfnzp5p5e" className="animable"></path><path d="M345.63,236.41a12.16,12.16,0,0,1,2.65,5.83s12.8-3.2,12.2-11.55a13,13,0,0,0-3.55-1.09S354.18,234.6,345.63,236.41Z" style="fill: rgb(64, 123, 255); transform-origin: 353.065px 235.92px;" id="elnu5k0nlqsph" className="animable"></path><path d="M343.51,236.41a13.46,13.46,0,0,0-2.82,5.83s-6.56-6-.17-11.48a17.1,17.1,0,0,1,3.39-.71S339.66,233.5,343.51,236.41Z" style="fill: rgb(64, 123, 255); transform-origin: 340.817px 236.145px;" id="el2t66ki1dzvo" className="animable"></path><g id="elq2j6okqpxkc"><path d="M345.3,221.31a19.28,19.28,0,0,1,.42,2.64c2.44-.49,5.69-3.08,6-5.57a11.48,11.48,0,0,0,.09-2.49Z" style="opacity: 0.2; transform-origin: 348.57px 219.92px;" className="animable"></path></g><path d="M338.3,194.69c-6,4.27-2.66,14.28,2.48,10.45S343.2,191.21,338.3,194.69Z" style="fill: rgb(38, 50, 56); transform-origin: 339.319px 199.984px;" id="eljvvb1dhpp3f" className="animable"></path><path d="M358.61,203.61c-1.67,7.66-2.25,12.22-6.78,15.72a10.2,10.2,0,0,1-16.5-7.34c-.6-7.14,2.23-18.48,10.29-20.65A10.32,10.32,0,0,1,358.61,203.61Z" style="fill: rgb(255, 195, 189); transform-origin: 347.07px 206.218px;" id="elmssvi946jtb" className="animable"></path><path d="M355.06,197.92c-4.25-1.17-15.21,1.62-19.1-2.53-4.17-4.45,1.91-6.62,3.71-5.07-2.27-2.6-1.43-5.38,1.79-5.13,2.35.18,3.09,2.78,3.09,2.78s-.39-4.55,3.65-4.23c3.66.28,3.67,5.22,3.67,5.22s8.74-2.47,11.66,5.87c5.5-.12,5.38,11.46-5.69,15.58C353.35,208.19,353.14,200.29,355.06,197.92Z" style="fill: rgb(38, 50, 56); transform-origin: 350.81px 197.067px;" id="el2a6akem4lcr" className="animable"></path><path d="M362.35,196.5a1.11,1.11,0,0,1-.2-2.21,1.6,1.6,0,0,0,.65-.81,2.62,2.62,0,0,0,.12-2.08,1.11,1.11,0,1,1,2-.92,4.87,4.87,0,0,1-.24,4.17,3.22,3.22,0,0,1-2.15,1.83A.65.65,0,0,1,362.35,196.5Z" style="fill: rgb(38, 50, 56); transform-origin: 363.225px 193.101px;" id="elpm3t9s5d8b" className="animable"></path><path d="M359.86,210.72a7,7,0,0,1-4.21,2.6c-2.17.39-2.83-1.61-1.87-3.54.86-1.75,3-4.05,5-3.55S361.14,209,359.86,210.72Z" style="fill: rgb(255, 195, 189); transform-origin: 356.98px 209.765px;" id="elkqphxclquzb" className="animable"></path><path d="M345.48,204.31c-.1.63-.51,1.1-.92,1.05s-.67-.6-.58-1.23.51-1.1.93-1S345.57,203.68,345.48,204.31Z" style="fill: rgb(38, 50, 56); transform-origin: 344.73px 204.24px;" id="el30syvp5n7ja" className="animable"></path><path d="M338.34,203.46c-.1.63-.51,1.1-.92,1s-.67-.6-.58-1.23.51-1.1.93-1.05S338.44,202.83,338.34,203.46Z" style="fill: rgb(38, 50, 56); transform-origin: 337.592px 203.325px;" id="elbtwd428k1rh" className="animable"></path><path d="M340.52,203.71a20.3,20.3,0,0,1-3,4.49,3.08,3.08,0,0,0,2.55.61Z" style="fill: rgb(237, 132, 126); transform-origin: 339.02px 206.292px;" id="el8by5c79oq32" className="animable"></path><path d="M343,212.05a5.52,5.52,0,0,0,4-1.64.19.19,0,0,0-.28-.25,5.25,5.25,0,0,1-4.39,1.47.2.2,0,0,0-.21.16.19.19,0,0,0,.17.21A6.27,6.27,0,0,0,343,212.05Z" style="fill: rgb(38, 50, 56); transform-origin: 344.575px 211.084px;" id="elvzqd89wb04" className="animable"></path><path d="M348.35,200.68a.35.35,0,0,0,.16-.08.37.37,0,0,0,0-.53,3.57,3.57,0,0,0-3.13-1.24.37.37,0,1,0,.12.74,2.86,2.86,0,0,1,2.46,1A.37.37,0,0,0,348.35,200.68Z" style="fill: rgb(38, 50, 56); transform-origin: 346.842px 199.752px;" id="elhxf4rdcjw44" className="animable"></path><path d="M335.79,200.27a.38.38,0,0,0,.34-.07,3.09,3.09,0,0,1,2.67-.72.38.38,0,0,0,.46-.26.37.37,0,0,0-.26-.46h0a3.83,3.83,0,0,0-3.34.87.37.37,0,0,0-.05.52A.36.36,0,0,0,335.79,200.27Z" style="fill: rgb(38, 50, 56); transform-origin: 337.4px 199.479px;" id="el6k12r19cssx" className="animable"></path><path d="M348.81,256.94l-4.38-2.72a2.77,2.77,0,0,0-3.84.92l-.51.86a2.76,2.76,0,0,0,.28,3.25l3,3.47s2.63,6.13,5.68,4.51l2.32-4Z" style="fill: rgb(255, 195, 189); transform-origin: 345.519px 260.651px;" id="elcq1wk35lh4t" className="animable"></path><path d="M353.32,264.78A18.79,18.79,0,0,0,351,260.7c-2.2,1.88-4,7.88-4,7.88l2.69.58A5,5,0,0,0,353.32,264.78Z" style="fill: rgb(64, 123, 255); transform-origin: 350.16px 264.93px;" id="elojrf6ul8njh" className="animable"></path><path d="M386.83,309.51H334.91c-3.4,0-5.6,3.37-4.92,7.53l6.48,39.27c.69,4.16,4,7.53,7.41,7.53H380.4Z" style="fill: rgb(64, 123, 255); transform-origin: 358.348px 336.675px;" id="el3g0v9vnj3bn" className="animable"></path><g id="elv2ux5h754ro"><path d="M386.83,309.51H334.91c-3.4,0-5.6,3.37-4.92,7.53l6.48,39.27c.69,4.16,4,7.53,7.41,7.53H380.4Z" style="fill: rgb(255, 255, 255); opacity: 0.5; transform-origin: 358.348px 336.675px;" className="animable"></path></g></g><g id="freepik--Table--inject-31" className="animable" style="transform-origin: 243.43px 350.19px;"><path d="M147.28,413.9h1.5a1,1,0,0,0,1-1L158,289h-6.19l-5.5,123.76A1,1,0,0,0,147.28,413.9Z" style="fill: rgb(64, 123, 255); transform-origin: 152.15px 351.45px;" id="elksoqufh2drq" className="animable"></path><g id="elqwsv43o8cb"><path d="M147.28,413.9h1.5a1,1,0,0,0,1-1L158,289h-6.19l-5.5,123.76A1,1,0,0,0,147.28,413.9Z" style="fill: rgb(255, 255, 255); opacity: 0.3; transform-origin: 152.15px 351.45px;" className="animable"></path></g><path d="M130.28,413.9h1.5a1,1,0,0,0,1-1L141,289h-6.2l-5.49,123.76A1,1,0,0,0,130.28,413.9Z" style="fill: rgb(64, 123, 255); transform-origin: 135.15px 351.45px;" id="elxzm0ylbark" className="animable"></path><g id="el5q96d9pcxt5"><path d="M130.28,413.9h1.5a1,1,0,0,0,1-1L141,289h-6.2l-5.49,123.76A1,1,0,0,0,130.28,413.9Z" style="fill: rgb(255, 255, 255); opacity: 0.3; transform-origin: 135.15px 351.45px;" className="animable"></path></g><path d="M339.93,413.9h-1.5a1,1,0,0,1-1-1L329.21,289h6.19l5.5,123.76A1,1,0,0,1,339.93,413.9Z" style="fill: rgb(64, 123, 255); transform-origin: 335.06px 351.45px;" id="elyvxlgj0ql8" className="animable"></path><g id="elia1nqxojqsr"><path d="M339.93,413.9h-1.5a1,1,0,0,1-1-1L329.21,289h6.19l5.5,123.76A1,1,0,0,1,339.93,413.9Z" style="fill: rgb(255, 255, 255); opacity: 0.3; transform-origin: 335.06px 351.45px;" className="animable"></path></g><path d="M356.93,413.9h-1.5a1,1,0,0,1-1-1L346.21,289h6.2l5.49,123.76A1,1,0,0,1,356.93,413.9Z" style="fill: rgb(64, 123, 255); transform-origin: 352.06px 351.45px;" id="el7snlax18rtm" className="animable"></path><g id="elm7eqjx2357s"><path d="M356.93,413.9h-1.5a1,1,0,0,1-1-1L346.21,289h6.2l5.49,123.76A1,1,0,0,1,356.93,413.9Z" style="fill: rgb(255, 255, 255); opacity: 0.3; transform-origin: 352.06px 351.45px;" className="animable"></path></g><rect x="122.78" y="286.48" width="241.3" height="2.55" style="fill: rgb(64, 123, 255); transform-origin: 243.43px 287.755px;" id="elwxp0m4cbpdr" className="animable"></rect></g><g id="freepik--character-1--inject-31" className="animable" style="transform-origin: 172.552px 296.787px;"><path d="M118.76,247l-2.28,16.77c-.72,5.58-1.47,11.18-2,16.68-.07.69-.12,1.36-.18,2l-.08,1a2.52,2.52,0,0,0,0-.5,2.16,2.16,0,0,0-.11-.47,2.44,2.44,0,0,0-.15-.35,1.54,1.54,0,0,0-.14-.23c-.18-.23-.2-.2-.15-.15a2,2,0,0,0,.34.29,10.55,10.55,0,0,0,1.32.77,53.55,53.55,0,0,0,7.35,2.73c5.24,1.59,10.75,3,16.19,4.31l-.62,4.77a119.81,119.81,0,0,1-17.34-1.79,50.54,50.54,0,0,1-8.91-2.35,19.25,19.25,0,0,1-2.47-1.16,10.86,10.86,0,0,1-1.4-.95,7.83,7.83,0,0,1-1.59-1.7,6.61,6.61,0,0,1-.76-1.53,7.69,7.69,0,0,1-.24-1,10,10,0,0,1-.06-1l0-1.11c0-.74,0-1.48.06-2.21.24-5.84.77-11.54,1.39-17.24s1.34-11.35,2.23-17Z" style="fill: rgb(127, 62, 59); transform-origin: 122.175px 270.1px;" id="el3ik934dpwv4" className="animable"></path><path d="M151.41,295l-3.67,3.35a2.85,2.85,0,0,1-3.15.46l-4.05-1.95s-6-.25-6.87-3.92l1.56-2.85,9.31-1a4.38,4.38,0,0,1,2.74.61l3.84,2.35A1.88,1.88,0,0,1,151.41,295Z" style="fill: rgb(127, 62, 59); transform-origin: 142.832px 294.078px;" id="elbow9ym5ovos" className="animable"></path><path d="M129.45,212.56c1,5.76,1.76,16.27-2.36,20,0,0,10,5.26,16.63,14.44,7-5.58,1.15-13.91,1.15-13.91-6.34-1.71-6-6.44-4.79-10.85Z" style="fill: rgb(127, 62, 59); transform-origin: 137.125px 229.78px;" id="el1blz1nlox4p" className="animable"></path><path d="M148.24,236.59s-.53-4.88-3.19-7.29c-2.23-2-14-.9-17.67-.49a2.05,2.05,0,0,0-1.6,1.14l-2.68,5.6Z" style="fill: rgb(64, 123, 255); transform-origin: 135.67px 232.364px;" id="elc4rugbvj13" className="animable"></path><g id="elbeh00cz9gni"><path d="M148.24,236.59s-.53-4.88-3.19-7.29c-2.23-2-14-.9-17.67-.49a2.05,2.05,0,0,0-1.6,1.14l-2.68,5.6Z" style="fill: rgb(255, 255, 255); opacity: 0.8; transform-origin: 135.67px 232.364px;" className="animable"></path></g><path d="M115.73,234c-7.24,2.36-8.8,12.07-8.14,19.62l14.61,9s3.55-11,3.52-16.92C125.69,239.44,120.65,232.42,115.73,234Z" style="fill: rgb(64, 123, 255); transform-origin: 116.586px 248.197px;" id="elijj9npqhp88" className="animable"></path><path d="M118.56,260.43a1.4,1.4,0,0,1-1-.39,1.46,1.46,0,0,1-.16-.21.92.92,0,0,1-.13-.24,1.83,1.83,0,0,1-.08-.25,1.15,1.15,0,0,1,0-.26,1.37,1.37,0,0,1,.4-1,1.4,1.4,0,0,1,1.92,0,1.37,1.37,0,0,1,.4,1,1.15,1.15,0,0,1,0,.26,1,1,0,0,1-.08.25.9.9,0,0,1-.12.24l-.17.21A1.36,1.36,0,0,1,118.56,260.43Z" style="fill: rgb(255, 255, 255); transform-origin: 118.55px 259.065px;" id="eltih9gipf8me" className="animable"></path><path d="M115.75,259.51h0a1.36,1.36,0,0,1-.87-1.22h0a1.34,1.34,0,0,1-1.47.22h0a1.37,1.37,0,0,1-.79-1.26h0a1.33,1.33,0,0,1-1.48.13h0a1.35,1.35,0,0,1-.71-1.3h0a1.36,1.36,0,0,1-1.49.05h0a1.36,1.36,0,0,1-.46-1.86h0a1.37,1.37,0,0,1,1.87-.46h0a1.4,1.4,0,0,1,.65,1.27h0a1.34,1.34,0,0,1,1.42-.09h0a1.37,1.37,0,0,1,.72,1.23h0a1.35,1.35,0,0,1,1.41-.17h0a1.36,1.36,0,0,1,.79,1.18h0a1.38,1.38,0,0,1,1.4-.25h0a1.36,1.36,0,0,1,.76,1.76h0a1.35,1.35,0,0,1-1.26.86h0A1.47,1.47,0,0,1,115.75,259.51Z" style="fill: rgb(255, 255, 255); transform-origin: 112.941px 256.608px;" id="elvayxfms1t9" className="animable"></path><path d="M107.59,255a1.24,1.24,0,0,1-.27,0,1,1,0,0,1-.25-.08.9.9,0,0,1-.24-.12l-.2-.17a1.06,1.06,0,0,1-.17-.2c0-.08-.09-.16-.13-.24a2.41,2.41,0,0,1-.08-.25,2.45,2.45,0,0,1,0-.27,2.11,2.11,0,0,1,0-.26,2.58,2.58,0,0,1,.08-.26,1,1,0,0,1,.13-.23,1.57,1.57,0,0,1,.17-.21l.2-.17a1.34,1.34,0,0,1,.24-.12l.25-.08a1.4,1.4,0,0,1,1.22.37,1.57,1.57,0,0,1,.17.21,1.71,1.71,0,0,1,.13.23,1.25,1.25,0,0,1,.07.26,1.09,1.09,0,0,1,0,.26,1.24,1.24,0,0,1,0,.27,1.17,1.17,0,0,1-.07.25c0,.08-.08.16-.13.24a1.06,1.06,0,0,1-.17.2A1.37,1.37,0,0,1,107.59,255Z" style="fill: rgb(255, 255, 255); transform-origin: 107.582px 253.663px;" id="eljlt5elctfkb" className="animable"></path><path d="M161.77,248.13c-.61,8.32-2.46,22.32-7,45.9l-39.14-1.16c1-14.45-.53-25.22-4.07-50.51a8.23,8.23,0,0,1,7.31-9.31c2.51-.26,5.37-.47,8.24-.53a125,125,0,0,1,17.78.53c1.9.23,3.87.54,5.75.86A13.42,13.42,0,0,1,161.77,248.13Z" style="fill: rgb(64, 123, 255); transform-origin: 136.645px 263.221px;" id="elh2confxp9cc" className="animable"></path><path d="M149.7,202c.09.77.58,1.35,1.08,1.28s.84-.73.75-1.5-.58-1.35-1.08-1.29S149.61,201.2,149.7,202Z" style="fill: rgb(38, 50, 56); transform-origin: 150.615px 201.886px;" id="elirc4ga0cvc" className="animable"></path><path d="M150.23,200.54l1.79-.76S151.24,201.34,150.23,200.54Z" style="fill: rgb(38, 50, 56); transform-origin: 151.125px 200.274px;" id="elhlokz12gtr" className="animable"></path><path d="M150,203.17a20.85,20.85,0,0,0,3.34,4.6,3.33,3.33,0,0,1-2.69.85Z" style="fill: rgb(99, 15, 15); transform-origin: 151.67px 205.909px;" id="eldkcq5q8ut19" className="animable"></path><path d="M149.79,195.21a.47.47,0,0,0,0-.46.46.46,0,0,0-.61-.21,4.52,4.52,0,0,0-2.6,3.26.45.45,0,0,0,.39.51.45.45,0,0,0,.51-.39h0a3.64,3.64,0,0,1,2.09-2.56A.38.38,0,0,0,149.79,195.21Z" style="fill: rgb(38, 50, 56); transform-origin: 148.213px 196.405px;" id="el50rn2z21olq" className="animable"></path><path d="M123.06,201.8c1.72,9.41,2.25,13.43,7.62,17.73,8.08,6.46,19.27,2.29,20.4-7.45,1-8.77-2-22.69-11.7-25.35A13.06,13.06,0,0,0,123.06,201.8Z" style="fill: rgb(127, 62, 59); transform-origin: 137.042px 204.443px;" id="elbso0cyzm1t6" className="animable"></path><path d="M143.8,204.44c1.58,5.17,5.36,17.67-3,20.46-6.53,2.18-27,3.92-29.35-8.07-2.43-12.39,8.62-21.22,8.62-21.22s-8.76-7.18-3.15-15c7.23-10.08,24.55-4.38,29.68,2.74C151.61,190.28,143.8,204.44,143.8,204.44Z" style="fill: rgb(38, 50, 56); transform-origin: 129.689px 200.815px;" id="ellu1ijyfq48r" className="animable"></path><path d="M128,226.62A29.25,29.25,0,0,1,117,224.46c-4.64-2-7.35-5.09-7.84-8.94-1.64-13.07,10.52-20.25,10.65-20.32l.48.83c-.12.07-11.73,6.94-10.17,19.37.56,4.41,4.26,6.88,7.27,8.17,5.94,2.56,13.61,2.54,15.47,1.18l.57.78C132.49,226.24,130.45,226.62,128,226.62Z" style="fill: rgb(38, 50, 56); transform-origin: 121.219px 210.91px;" id="elrlzrd34s9om" className="animable"></path><path d="M116.31,193.74c-.11,1.67-1.49,4,4.3,4.83s13.85.78,15.51-.61,3.28-4.73-.18-4.43S116.5,190.88,116.31,193.74Z" style="fill: rgb(64, 123, 255); transform-origin: 127.038px 195.799px;" id="el40t44gfy8i4" className="animable"></path><path d="M140.63,205.91a7.55,7.55,0,0,0,4.44,3.63c2.52.74,3.82-1.51,3.15-3.91-.61-2.16-2.66-5.15-5.2-4.84S139.5,203.76,140.63,205.91Z" style="fill: rgb(127, 62, 59); transform-origin: 144.28px 205.226px;" id="elvnkqlgarz" className="animable"></path><polygon points="201.64 403.56 210.92 403.38 206.43 380.22 197.15 380.39 201.64 403.56" style="fill: rgb(127, 62, 59); transform-origin: 204.035px 391.89px;" id="eluuwcv24i90f" className="animable"></polygon><path d="M208.6,393.47c2.45,9.25,11.48,19,11.48,19l-12.88-3.28-5.63-8,1-2.12Z" style="fill: rgb(127, 62, 59); transform-origin: 210.825px 402.97px;" id="elj583lke1yei" className="animable"></path><path d="M199.45,397.77a19.64,19.64,0,0,0,.19,3.24c.55,3.82,2.23,14,2.23,14h.88a90.42,90.42,0,0,1-.71-9.34c.12-2.51,1.74,1.93,3.7,4.45s5.49,4.81,11.2,5c6.68.21,9.35-.07,7.21-1.74s-6.7-2.75-6.7-2.75a20.31,20.31,0,0,1-9-7.55,23.56,23.56,0,0,0-8.29-7.17C199.6,395.94,199.49,397,199.45,397.77Z" style="fill: rgb(38, 50, 56); transform-origin: 212.159px 405.545px;" id="el9auigwx3kla" className="animable"></path><polygon points="234.51 372.09 246.35 372.46 233.1 352.76 224.9 359.77 234.51 372.09" style="fill: rgb(127, 62, 59); transform-origin: 235.625px 362.61px;" id="elyfe5pe9763d" className="animable"></polygon><path d="M237.32,363.73c8.61,4,22.39,3.22,22.39,3.22l-11.2,9-9.61-.72-1-2.13Z" style="fill: rgb(127, 62, 59); transform-origin: 248.515px 369.84px;" id="el74v7kmp0u6m" className="animable"></path><path d="M235.5,373.94A19.81,19.81,0,0,0,238,376c3.14,2.19,11.63,7.8,11.63,7.8l.54-.69a90.49,90.49,0,0,1-7.29-5.83c-1.78-1.82,2.49-.05,5.55.13s6.92-1,10.57-5.4c4.29-5.11,5.72-7.4,3.18-6.86s-6.16,3.38-6.16,3.38a18,18,0,0,1-11.11,1.94,20.83,20.83,0,0,0-10.39,1.61C234.25,372.58,234.92,373.36,235.5,373.94Z" style="fill: rgb(38, 50, 56); transform-origin: 248.948px 374.436px;" id="elko2o3m49d6" className="animable"></path><path d="M141.1,293.35S204.46,284,211,300.22c11.42,28.26,27.53,60.64,27.53,60.64l-7.78,6.44s-27.63-25.58-37.45-54c-11.74,3.8-49.09,16-62.77,16-14.61,0-20.58-12.45-15.3-33.14a4.16,4.16,0,0,1,4-3.11C128.5,293.14,141.1,293.35,141.1,293.35Z" style="fill: rgb(38, 50, 56); transform-origin: 175.933px 328.984px;" id="elkbgz1t85a8" className="animable"></path><path d="M147.17,301.6s52-1.56,52.45,16.86c.72,30.47,9.31,74.13,9.31,74.13l-9.49.88S183.93,358.74,179.83,329c-18.52,1.2-35.6.37-49.28.37-15.33,0-16.6-16.83-1.68-36.48C138,292.87,147.17,301.6,147.17,301.6Z" style="fill: rgb(38, 50, 56); transform-origin: 163.635px 343.18px;" id="el4mczsukw7a2" className="animable"></path><path d="M115.09,290.55,114,294c-.15.27.16.55.62.57l40.28,1.19c.35,0,.65-.15.68-.37l.46-3.49c0-.25-.27-.46-.66-.47l-39.63-1.18A.71.71,0,0,0,115.09,290.55Z" style="fill: rgb(255, 255, 255); transform-origin: 135.001px 293.003px;" id="eldk0t4aqz2cl" className="animable"></path><path d="M120.28,295.14l-1.06,0c-.21,0-.37-.12-.35-.25l.63-4.54c0-.13.21-.23.42-.23l1.06,0c.21,0,.37.12.35.25l-.63,4.53C120.68,295.05,120.49,295.15,120.28,295.14Z" style="fill: rgb(38, 50, 56); transform-origin: 120.1px 292.63px;" id="eluv10ccgy1t" className="animable"></path><path d="M151.89,296.09l-1.06,0c-.21,0-.37-.12-.35-.25l.64-4.54c0-.13.2-.23.41-.23l1.06,0c.22,0,.37.12.36.25l-.64,4.54C152.29,296,152.11,296.09,151.89,296.09Z" style="fill: rgb(38, 50, 56); transform-origin: 151.714px 293.58px;" id="el54ogobx1qcb" className="animable"></path><path d="M136.09,295.61l-1.06,0c-.22,0-.37-.12-.35-.25l.63-4.54c0-.13.21-.23.42-.23l1.06,0c.21,0,.37.12.35.25l-.63,4.54C136.49,295.52,136.3,295.62,136.09,295.61Z" style="fill: rgb(38, 50, 56); transform-origin: 135.91px 293.1px;" id="el1i0cc7k9i04" className="animable"></path><path d="M184.33,251.61h25.29a1.22,1.22,0,0,1,1.17,1.55l-9.46,32.45a1.2,1.2,0,0,1-1.16.87h-25.3a1.2,1.2,0,0,1-1.16-1.55l9.45-32.45A1.21,1.21,0,0,1,184.33,251.61Z" style="fill: rgb(64, 123, 255); transform-origin: 192.247px 269.045px;" id="elf0b08ev1l7t" className="animable"></path><polygon points="184.79 252.8 209.38 253.38 199.67 283.99 175.08 283.4 184.79 252.8" style="fill: rgb(224, 224, 224); transform-origin: 192.23px 268.395px;" id="ela997l0h5d8w" className="animable"></polygon><polygon points="184.02 252.5 208.61 252.6 199.5 283.39 174.91 283.29 184.02 252.5" style="fill: rgb(255, 255, 255); transform-origin: 191.76px 267.945px;" id="elz6mfmm3wl5" className="animable"></polygon><path d="M161.84,253.14c0,1,.15,2.18.23,3.29s.23,2.27.38,3.4q.42,3.39,1.12,6.68a47.81,47.81,0,0,0,1.78,6.3c.37,1,.78,2,1.22,2.88.22.46.46.89.7,1.33l.37.61s-.07,0,0,0a4.44,4.44,0,0,0,1.59.93,19.64,19.64,0,0,0,2.88.87,56.77,56.77,0,0,0,6.69,1c4.62.45,9.45.67,14.17.77l.48,4.79a90.52,90.52,0,0,1-14.91,1.69,54.24,54.24,0,0,1-7.79-.32,27.33,27.33,0,0,1-4.19-.85,12.43,12.43,0,0,1-4.78-2.47,8.68,8.68,0,0,1-1.26-1.35l-.64-.9c-.41-.6-.81-1.2-1.15-1.81a30.74,30.74,0,0,1-1.89-3.7,48.2,48.2,0,0,1-2.58-7.56,65.61,65.61,0,0,1-1.49-7.64c-.17-1.27-.3-2.55-.41-3.84s-.18-2.52-.2-4Z" style="fill: rgb(127, 62, 59); transform-origin: 172.805px 270.423px;" id="el3xbpb746x5t" className="animable"></path><path d="M158.55,238.39c6.3,5.93,4.78,21.38,4.78,21.38l-12.06,2.11s-7.45-11.08-4.83-15.72C149.16,241.32,155.15,235.18,158.55,238.39Z" style="fill: rgb(64, 123, 255); transform-origin: 154.686px 249.69px;" id="el1fc3f9043r3" className="animable"></path><path d="M163.33,261.13a1.39,1.39,0,0,1-1-.4,1.2,1.2,0,0,1-.17-.21,1.67,1.67,0,0,1-.12-.23A2,2,0,0,1,162,260a2.11,2.11,0,0,1,0-.26,1.36,1.36,0,0,1,.39-1,1.73,1.73,0,0,1,.21-.17,1,1,0,0,1,.23-.12,1.29,1.29,0,0,1,.26-.08,1.36,1.36,0,0,1,1.62,1.33,1.09,1.09,0,0,1,0,.26,1.12,1.12,0,0,1-.08.26,1,1,0,0,1-.12.23,1.2,1.2,0,0,1-.17.21A1.37,1.37,0,0,1,163.33,261.13Z" style="fill: rgb(255, 255, 255); transform-origin: 163.357px 259.738px;" id="elgog6rwgy13k" className="animable"></path><path d="M152.37,261.85a1.36,1.36,0,0,1,1.24-1.47h0a1.34,1.34,0,0,1,1.27.64h0a1.38,1.38,0,0,1,1.09-.92h0a1.38,1.38,0,0,1,1.31.57h0a1.34,1.34,0,0,1,1-1h0a1.35,1.35,0,0,1,1.34.49h0a1.36,1.36,0,0,1,1-1h0a1.35,1.35,0,0,1,1.66,1h0a1.36,1.36,0,0,1-1,1.66h0a1.37,1.37,0,0,1-1.41-.47h0a1.37,1.37,0,0,1-1.06,1.05h0a1.38,1.38,0,0,1-1.38-.56h0a1.35,1.35,0,0,1-1.11,1h0a1.36,1.36,0,0,1-1.35-.63h0a1.37,1.37,0,0,1-1.17.92h-.11A1.37,1.37,0,0,1,152.37,261.85Z" style="fill: rgb(255, 255, 255); transform-origin: 157.344px 261.123px;" id="eltc1s6wx1j2m" className="animable"></path><path d="M151.27,263.24a1.24,1.24,0,0,1-.27,0l-.25-.08a1.79,1.79,0,0,1-.24-.12l-.2-.17a.87.87,0,0,1-.17-.21,1.71,1.71,0,0,1-.13-.23,1.25,1.25,0,0,1-.07-.26,1.09,1.09,0,0,1,0-.26,1.24,1.24,0,0,1,0-.27,1.17,1.17,0,0,1,.07-.25c0-.08.08-.16.13-.24a1.06,1.06,0,0,1,.17-.2l.2-.17a1.08,1.08,0,0,1,.24-.12,1,1,0,0,1,.25-.08,1.34,1.34,0,0,1,1.22.37,1.06,1.06,0,0,1,.17.2c.05.08.09.16.13.24a2.41,2.41,0,0,1,.08.25,2.45,2.45,0,0,1,0,.27,2.11,2.11,0,0,1,0,.26,2.58,2.58,0,0,1-.08.26,1.71,1.71,0,0,1-.13.23,1.12,1.12,0,0,1-.17.21A1.37,1.37,0,0,1,151.27,263.24Z" style="fill: rgb(255, 255, 255); transform-origin: 151.268px 261.9px;" id="elqn4bslxkhr" className="animable"></path><path d="M204.2,276.22l-4.18-.28a4.66,4.66,0,0,0-2.94.79l-7.67,5.15-.06,3.25c2.46,2.86,7.9.3,7.9.3l5.05-.17a2,2,0,0,0,1.83-1.32l1.83-5A2,2,0,0,0,204.2,276.22Z" style="fill: rgb(127, 62, 59); transform-origin: 197.723px 281.206px;" id="el1h8kwffruco" className="animable"></path><path d="M117.59,418.41h1.13a1,1,0,0,0,.9-.92l7-48.44h-5.29l-4.61,48.12A1.05,1.05,0,0,0,117.59,418.41Z" style="fill: rgb(64, 123, 255); transform-origin: 121.66px 393.73px;" id="ely6imxpnxjbi" className="animable"></path><g id="elrob9zjk5nui"><path d="M117.59,418.41h1.13a1,1,0,0,0,.9-.92l7-48.44h-5.29l-4.61,48.12A1.05,1.05,0,0,0,117.59,418.41Z" style="opacity: 0.3; transform-origin: 121.66px 393.73px;" className="animable"></path></g><path d="M103.09,418.41h1.13a1,1,0,0,0,.9-.92l7-48.44h-5.29l-4.61,48.12A1.05,1.05,0,0,0,103.09,418.41Z" style="fill: rgb(64, 123, 255); transform-origin: 107.16px 393.73px;" id="el2pai8r2bcx9" className="animable"></path><g id="el7zn1mznzbds"><path d="M103.09,418.41h1.13a1,1,0,0,0,.9-.92l7-48.44h-5.29l-4.61,48.12A1.05,1.05,0,0,0,103.09,418.41Z" style="opacity: 0.3; transform-origin: 107.16px 393.73px;" className="animable"></path></g><path d="M183.89,418.41h-1.14a1,1,0,0,1-.89-.92l-7-48.44h5.28l4.61,48.12A1.05,1.05,0,0,1,183.89,418.41Z" style="fill: rgb(64, 123, 255); transform-origin: 179.815px 393.73px;" id="el9kd9nsap4ek" className="animable"></path><g id="el5iethuh0a8x"><path d="M183.89,418.41h-1.14a1,1,0,0,1-.89-.92l-7-48.44h5.28l4.61,48.12A1.05,1.05,0,0,1,183.89,418.41Z" style="opacity: 0.3; transform-origin: 179.815px 393.73px;" className="animable"></path></g><path d="M198.39,418.41h-1.14a1,1,0,0,1-.89-.92l-7-48.44h5.28l4.61,48.12A1.05,1.05,0,0,1,198.39,418.41Z" style="fill: rgb(64, 123, 255); transform-origin: 194.315px 393.73px;" id="elh2jk469q9y" className="animable"></path><g id="elu2bmyze3i4n"><path d="M198.39,418.41h-1.14a1,1,0,0,1-.89-.92l-7-48.44h5.28l4.61,48.12A1.05,1.05,0,0,1,198.39,418.41Z" style="opacity: 0.3; transform-origin: 194.315px 393.73px;" className="animable"></path></g><path d="M217.18,311.63h-35.6c-6.32-21.94-29-39.24-52.32-39.24H117.7c-24.36,0-40.08,19-35.12,42.34a48.18,48.18,0,0,0,4.53,12.34l5.62,34c.72,4.39,4.23,7.95,7.82,7.95H207.71c3.59,0,7.1-3.56,7.82-7.95l6.85-41.52C223.11,315.19,220.78,311.63,217.18,311.63Z" style="fill: rgb(64, 123, 255); transform-origin: 152.09px 320.705px;" id="elm5jqfqmi0al" className="animable"></path><g id="el49kyyobewro"><path d="M217.18,311.63h-35.6c-6.32-21.94-29-39.24-52.32-39.24H117.7c-24.36,0-40.08,19-35.12,42.34a48.18,48.18,0,0,0,4.53,12.34l5.62,34c.72,4.39,4.23,7.95,7.82,7.95H207.71c3.59,0,7.1-3.56,7.82-7.95l6.85-41.52C223.11,315.19,220.78,311.63,217.18,311.63Z" style="fill: rgb(255, 255, 255); opacity: 0.5; transform-origin: 152.09px 320.705px;" className="animable"></path></g></g><g id="freepik--bubble-speech--inject-31" className="animable" style="transform-origin: 250px 155.125px;"><rect x="204.37" y="152.15" width="8.17" height="1" style="fill: rgb(64, 123, 255); transform-origin: 208.455px 152.65px;" id="el4csmij1f5vv" className="animable"></rect><path d="M174.32,163.93h-1V159a6.87,6.87,0,0,1,6.87-6.86h18.23v1H180.19a5.87,5.87,0,0,0-5.87,5.86Z" style="fill: rgb(64, 123, 255); transform-origin: 185.87px 158.035px;" id="el0ixuhk7my63a" className="animable"></path><path d="M180.19,155.65h91.17a3.36,3.36,0,0,1,3.36,3.36v35.75a3.37,3.37,0,0,1-3.37,3.37H180.19a3.37,3.37,0,0,1-3.37-3.37V159A3.36,3.36,0,0,1,180.19,155.65Z" style="fill: rgb(64, 123, 255); transform-origin: 225.77px 176.89px;" id="elqjvtkhb40n" className="animable"></path><path d="M267.05,179.15H184.5a2.26,2.26,0,0,1-2.26-2.26h0a2.26,2.26,0,0,1,2.26-2.26h82.55a2.26,2.26,0,0,1,2.26,2.26h0A2.26,2.26,0,0,1,267.05,179.15Z" style="fill: rgb(255, 255, 255); transform-origin: 225.775px 176.89px;" id="eleca71bfleeg" className="animable"></path><path d="M249.38,188.54H184.5a2.26,2.26,0,0,1-2.26-2.26h0A2.26,2.26,0,0,1,184.5,184h64.88a2.26,2.26,0,0,1,2.26,2.26h0A2.26,2.26,0,0,1,249.38,188.54Z" style="fill: rgb(255, 255, 255); transform-origin: 216.94px 186.27px;" id="elscnvqufs0ja" className="animable"></path><path d="M212.34,169.76H184.5a2.26,2.26,0,0,1-2.26-2.26h0a2.26,2.26,0,0,1,2.26-2.26h27.84a2.26,2.26,0,0,1,2.26,2.26h0A2.26,2.26,0,0,1,212.34,169.76Z" style="fill: rgb(255, 255, 255); transform-origin: 198.42px 167.5px;" id="eln84zm4ros4b" className="animable"></path><path d="M249.24,169.76H221.4a2.26,2.26,0,0,1-2.26-2.26h0a2.26,2.26,0,0,1,2.26-2.26h27.84a2.26,2.26,0,0,1,2.26,2.26h0A2.26,2.26,0,0,1,249.24,169.76Z" style="fill: rgb(255, 255, 255); transform-origin: 235.32px 167.5px;" id="els0e6xkiccf" className="animable"></path><path d="M182.24,195.42v10.83a2.5,2.5,0,0,0,4,2l16.6-12.84Z" style="fill: rgb(64, 123, 255); transform-origin: 192.54px 202.08px;" id="el2ev62b6n4mk" className="animable"></path><path d="M322.81,102H231.64a3.37,3.37,0,0,0-3.37,3.37v35.75a3.37,3.37,0,0,0,3.37,3.37h72l13.06,10.1a2.5,2.5,0,0,0,4-2v-8.12h2.05a3.37,3.37,0,0,0,3.37-3.37V105.37A3.37,3.37,0,0,0,322.81,102Z" style="fill: rgb(255, 255, 255); transform-origin: 277.195px 128.545px;" id="eljv1x322l46s" className="animable"></path><path d="M318.25,155.62a3.06,3.06,0,0,1-1.84-.63l-12.92-10H231.64a3.88,3.88,0,0,1-3.87-3.87V105.37a3.88,3.88,0,0,1,3.87-3.87h91.17a3.88,3.88,0,0,1,3.87,3.87v35.75a3.88,3.88,0,0,1-3.87,3.87h-1.55v7.62a3,3,0,0,1-3,3ZM231.64,102.5a2.88,2.88,0,0,0-2.87,2.87v35.75a2.88,2.88,0,0,0,2.87,2.87h72.2L317,154.19a2,2,0,0,0,3.24-1.58V144h2.55a2.88,2.88,0,0,0,2.87-2.87V105.37a2.88,2.88,0,0,0-2.87-2.87Z" style="fill: rgb(64, 123, 255); transform-origin: 277.225px 128.56px;" id="el1bmnqkjvdng" className="animable"></path><path d="M275.28,125.51H318.5a2.26,2.26,0,0,0,2.26-2.26h0A2.27,2.27,0,0,0,318.5,121H275.28a2.27,2.27,0,0,0-2.26,2.27h0A2.26,2.26,0,0,0,275.28,125.51Z" style="fill: rgb(64, 123, 255); transform-origin: 296.89px 123.255px;" id="el3enu7ygs3f" className="animable"></path><path d="M245.1,125.51h21.4a2.26,2.26,0,0,0,2.26-2.26h0A2.27,2.27,0,0,0,266.5,121H245.1a2.27,2.27,0,0,0-2.26,2.27h0A2.26,2.26,0,0,0,245.1,125.51Z" style="fill: rgb(64, 123, 255); transform-origin: 255.8px 123.255px;" id="elbkfryzpztuo" className="animable"></path><g id="el3bmpqoqnboh"><rect x="251.36" y="130.37" width="69.41" height="4.52" rx="2.26" style="fill: rgb(64, 123, 255); transform-origin: 286.065px 132.63px; transform: rotate(180deg);" className="animable"></rect></g><path d="M236,116.12H318.5a2.26,2.26,0,0,0,2.26-2.26h0a2.27,2.27,0,0,0-2.26-2.27H236a2.27,2.27,0,0,0-2.26,2.27h0A2.26,2.26,0,0,0,236,116.12Z" style="fill: rgb(64, 123, 255); transform-origin: 277.25px 113.855px;" id="elv7abgih4or8" className="animable"></path></g><defs>     <filter id="active" height="200%">         <feMorphology in="SourceAlpha" result="DILATED" operator="dilate" radius="2"></feMorphology>                <feFlood flood-color="#32DFEC" flood-opacity="1" result="PINK"></feFlood>        <feComposite in="PINK" in2="DILATED" operator="in" result="OUTLINE"></feComposite>        <feMerge>            <feMergeNode in="OUTLINE"></feMergeNode>            <feMergeNode in="SourceGraphic"></feMergeNode>        </feMerge>    </filter>    <filter id="hover" height="200%">        <feMorphology in="SourceAlpha" result="DILATED" operator="dilate" radius="2"></feMorphology>                <feFlood flood-color="#ff0000" flood-opacity="0.5" result="PINK"></feFlood>        <feComposite in="PINK" in2="DILATED" operator="in" result="OUTLINE"></feComposite>        <feMerge>            <feMergeNode in="OUTLINE"></feMergeNode>            <feMergeNode in="SourceGraphic"></feMergeNode>        </feMerge>            <feColorMatrix type="matrix" values="0   0   0   0   0                0   1   0   0   0                0   0   0   0   0                0   0   0   1   0 "></feColorMatrix>    </filter></defs></svg>