<svg xmlns="http://www.w3.org/2000/svg" width="304" height="202" viewBox="0 0 304 202" fill="none">
<path d="M151.407 201.385C203.517 201.385 245.761 159.142 245.761 107.032C245.761 54.9218 203.517 12.6782 151.407 12.6782C99.2973 12.6782 57.0537 54.9218 57.0537 107.032C57.0537 159.142 99.2973 201.385 151.407 201.385Z" fill="#EDF5FF"/>
<path d="M206.734 65.6186C216.973 65.6186 225.273 57.3183 225.273 47.0793C225.273 36.8404 216.973 28.54 206.734 28.54C196.495 28.54 188.194 36.8404 188.194 47.0793C188.194 57.3183 196.495 65.6186 206.734 65.6186Z" fill="#BFDCFF"/>
<path d="M96.2482 189.73C108.727 189.73 118.843 179.614 118.843 167.135C118.843 154.656 108.727 144.54 96.2482 144.54C83.7694 144.54 73.6533 154.656 73.6533 167.135C73.6533 179.614 83.7694 189.73 96.2482 189.73Z" fill="#D0E5FF"/>
<path d="M146.341 53.7018C149.471 51.8084 153.394 51.8097 156.523 53.7058L162.895 57.5666L139.968 57.5587L146.341 53.7018Z" fill="#C0D6FF" fill-opacity="0.01"/>
<path d="M210.111 150.939L210.113 150.94L210.112 152.932C210.11 157.821 206.145 161.784 201.255 161.782L101.535 161.748C96.6458 161.746 92.6826 157.78 92.6846 152.891L92.6856 150.899L92.7043 95.7666L101.849 101.308L101.861 65.4363C101.861 61.0889 105.064 57.5654 109.013 57.5664L196.159 57.5996C200.107 57.6016 203.307 61.1272 203.306 65.4747L203.295 99.9432L209.925 95.9319L203.339 99.8714L203.342 90.3618C208.463 92.2713 210.133 95.8076 210.133 95.8076L210.13 95.8095L210.111 150.939Z" fill="#C0D6FF" fill-opacity="0.01"/>
<path d="M101.82 91.751C96.6975 93.6565 92.7061 95.7665 92.7061 95.7665L101.817 101.261L101.82 91.751Z" fill="#C0D6FF" fill-opacity="0.01"/>
<path d="M156.523 53.7058C153.394 51.8097 149.471 51.8084 146.341 53.7018L139.968 57.5587L162.895 57.5666L156.523 53.7058Z" fill="#3E7FFF"/>
<path d="M203.285 130.539L101.84 130.499L101.861 65.4363C101.861 61.0889 105.064 57.5654 109.013 57.5664L196.159 57.5996C200.107 57.6016 203.307 61.1272 203.306 65.4747L203.285 130.539Z" fill="white"/>
<path d="M148.818 73.3037H121.635C120.094 73.3037 118.845 74.5529 118.845 76.0939C118.845 77.6348 120.094 78.884 121.635 78.884H148.818C150.359 78.884 151.609 77.6348 151.609 76.0939C151.609 74.5529 150.359 73.3037 148.818 73.3037Z" fill="#3E7FFF"/>
<path d="M183.51 87.1001H121.635C120.094 87.1001 118.845 88.3493 118.845 89.8903C118.845 91.4312 120.094 92.6804 121.635 92.6804H183.51C185.051 92.6804 186.3 91.4312 186.3 89.8903C186.3 88.3493 185.051 87.1001 183.51 87.1001Z" fill="#EBEDF5"/>
<path d="M170.482 96.5059H121.635C120.094 96.5059 118.845 97.7551 118.845 99.296C118.845 100.837 120.094 102.086 121.635 102.086H170.482C172.023 102.086 173.272 100.837 173.272 99.296C173.272 97.7551 172.023 96.5059 170.482 96.5059Z" fill="#EBEDF5"/>
<path d="M181.718 105.912H121.635C120.094 105.912 118.845 107.161 118.845 108.702C118.845 110.243 120.094 111.492 121.635 111.492H181.718C183.259 111.492 184.508 110.243 184.508 108.702C184.508 107.161 183.259 105.912 181.718 105.912Z" fill="#EBEDF5"/>
<path d="M164.034 115.317H121.635C120.094 115.317 118.845 116.566 118.845 118.107C118.845 119.648 120.094 120.897 121.635 120.897H164.034C165.575 120.897 166.824 119.648 166.824 118.107C166.824 116.566 165.575 115.317 164.034 115.317Z" fill="#EBEDF5"/>
<path d="M92.7061 95.7665C92.7061 95.7665 96.6975 93.6565 101.82 91.751L101.817 101.261L92.7061 95.7665Z" fill="#C0D6FF"/>
<path d="M210.133 95.8076C210.133 95.8076 208.463 92.2713 203.342 90.3618L203.339 99.8714L210.133 95.8076Z" fill="#C0D6FF"/>
<path d="M147.59 117.682L92.6856 150.899L92.6846 152.891C92.6826 157.78 96.6458 161.746 101.535 161.748L151.395 161.764L201.255 161.782C206.145 161.784 210.11 157.821 210.112 152.932L210.113 150.94L155.23 117.684C152.883 116.261 149.938 116.26 147.59 117.682Z" fill="#3E7FFF"/>
<path d="M92.6855 150.899L92.7043 95.7666L138.222 123.349L92.6855 150.899Z" fill="#6C9EFF"/>
<path d="M210.111 150.94L210.13 95.8081L164.593 123.358L210.111 150.94Z" fill="#6C9EFF"/>
<g filter="url(#filter0_d)">
<path d="M60.8597 64.3211L65.6729 77.8403L14.7373 18.1255L60.8597 64.3211Z" fill="#E9243B" fill-opacity="0.01"/>
<path d="M32.8302 79.8786C33.5893 82.156 36.3564 83.0204 38.2768 81.5801L83.161 47.9168C85.2526 46.3482 84.9621 43.1269 82.6237 41.9577L13.3987 7.34519C11.2969 6.29425 8.97365 8.30915 9.71677 10.5385L32.8302 79.8786Z" fill="#E9243B" fill-opacity="0.01"/>
<path d="M60.8598 64.3212L65.6729 77.8403L70.9696 57.0598L14.3711 11.1675L60.8598 64.3212Z" fill="#E9243B" fill-opacity="0.01"/>
</g>
<path d="M60.8597 64.3211L65.6729 77.8403L14.7373 18.1255L60.8597 64.3211Z" fill="#CE2035"/>
<path d="M32.8302 79.8786C33.5893 82.156 36.3564 83.0204 38.2768 81.5801L83.161 47.9168C85.2526 46.3482 84.9621 43.1269 82.6237 41.9577L13.3987 7.34519C11.2969 6.29425 8.97365 8.30915 9.71677 10.5385L32.8302 79.8786Z" fill="#FF485E"/>
<path d="M60.8598 64.3212L65.6729 77.8403L70.9696 57.0598L14.3711 11.1675L60.8598 64.3212Z" fill="#E9243B"/>
<path d="M53.6276 84.4219C52.5366 96.8817 71.0913 125.684 80.0903 106.525C86.768 92.3077 57.0122 94.3471 53.6276 111.268C52.3289 117.761 55.5946 144.4 84.5133 142.284" stroke="#A2CBFF" stroke-width="1.28307" stroke-linecap="round" stroke-dasharray="3.53 3.53"/>
<g filter="url(#filter1_d)">
<path d="M286.565 101.751C270.951 124.049 232.879 118.004 232.879 118.004L240.107 107.68C224.431 96.7039 219.808 76.2494 229.789 61.9956C239.77 47.7408 260.571 45.0891 276.248 56.0654C291.923 67.0416 296.546 87.496 286.565 101.751Z" fill="white" fill-opacity="0.01"/>
<path d="M271.148 66.4589C269.864 65.5597 268.094 65.872 267.195 67.1556L266.44 68.2332C261.708 66.4617 256.201 68.0114 253.166 72.3468L246.655 81.6465L243.02 81.7718L243.014 81.768C242.373 81.7434 241.757 82.0429 241.384 82.5756C240.786 83.4288 240.995 84.6128 241.848 85.211L263.548 100.405C264.401 101.002 265.585 100.794 266.183 99.9401C266.556 99.4076 266.627 98.7262 266.378 98.1275L265.253 94.6694L271.765 85.3696C274.801 81.0351 274.373 75.3312 271.091 71.489L271.845 70.4116C272.744 69.1279 272.432 67.3572 271.148 66.4589ZM248.513 92.1873C247.317 93.8948 247.735 96.2617 249.443 97.4572C251.15 98.6528 253.517 98.2357 254.713 96.5283L248.513 92.1873Z" fill="white" fill-opacity="0.01"/>
</g>
<path d="M286.565 101.751C270.951 124.049 232.879 118.004 232.879 118.004L240.107 107.68C224.431 96.7039 219.808 76.2494 229.789 61.9956C239.77 47.7408 260.571 45.0891 276.248 56.0654C291.923 67.0416 296.546 87.496 286.565 101.751Z" fill="#FFCD1D"/>
<path d="M271.148 66.4589C269.864 65.5597 268.094 65.872 267.195 67.1556L266.44 68.2332C261.708 66.4617 256.201 68.0114 253.166 72.3468L246.655 81.6465L243.02 81.7718L243.014 81.768C242.373 81.7434 241.757 82.0429 241.384 82.5756C240.786 83.4288 240.995 84.6128 241.848 85.211L263.548 100.405C264.401 101.002 265.585 100.794 266.183 99.9401C266.556 99.4076 266.627 98.7262 266.378 98.1275L265.253 94.6694L271.765 85.3696C274.801 81.0351 274.373 75.3312 271.091 71.489L271.845 70.4116C272.744 69.1279 272.432 67.3572 271.148 66.4589ZM248.513 92.1873C247.317 93.8948 247.735 96.2617 249.443 97.4572C251.15 98.6528 253.517 98.2357 254.713 96.5283L248.513 92.1873Z" fill="white"/>
<path d="M257.313 126.781C264.494 160.89 226.826 186.731 187.579 174.07" stroke="#A2CBFF" stroke-width="1.28307" stroke-linecap="round" stroke-dasharray="3.53 3.53"/>
<defs>
<filter id="filter0_d" x="0.593696" y="0.643234" width="92.9559" height="93.1896" filterUnits="userSpaceOnUse" color-interpolation-filters="sRGB">
<feFlood flood-opacity="0" result="BackgroundImageFix"/>
<feColorMatrix in="SourceAlpha" type="matrix" values="0 0 0 0 0 0 0 0 0 0 0 0 0 0 0 0 0 0 127 0"/>
<feOffset dy="2.56614"/>
<feGaussianBlur stdDeviation="4.49075"/>
<feColorMatrix type="matrix" values="0 0 0 0 0.956863 0 0 0 0 0.14902 0 0 0 0 0.243137 0 0 0 0.21 0"/>
<feBlend mode="normal" in2="BackgroundImageFix" result="effect1_dropShadow"/>
<feBlend mode="normal" in="SourceGraphic" in2="effect1_dropShadow" result="shape"/>
</filter>
<filter id="filter1_d" x="212.974" y="40.9564" width="90.4062" height="92.5499" filterUnits="userSpaceOnUse" color-interpolation-filters="sRGB">
<feFlood flood-opacity="0" result="BackgroundImageFix"/>
<feColorMatrix in="SourceAlpha" type="matrix" values="0 0 0 0 0 0 0 0 0 0 0 0 0 0 0 0 0 0 127 0"/>
<feOffset dy="3.20768"/>
<feGaussianBlur stdDeviation="5.77382"/>
<feColorMatrix type="matrix" values="0 0 0 0 1 0 0 0 0 0.80475 0 0 0 0 0.1125 0 0 0 0.29 0"/>
<feBlend mode="normal" in2="BackgroundImageFix" result="effect1_dropShadow"/>
<feBlend mode="normal" in="SourceGraphic" in2="effect1_dropShadow" result="shape"/>
</filter>
</defs>
</svg>